# xmcd
#
# Track frame offsets:
#	150
#	6090
#	26964
#	45868
#	61931
#	75986
#	86744
#	106700
#	133847
#	165987
#
# Disc length: 2519 seconds
#
# Revision: 2
# Processed by: cddbd v1.5.2PL0 Copyright (c) Steve Scherf et al.
# Submitted via: audiograbber 1.83.01
#
DISCID=6a09d50a
DTITLE=Offalmincer - Filicide at Feretory
DYEAR=2008
DGENRE=Death Metal
TTITLE0=Voices From the Tombs
TTITLE1=Filicide at Feretory
TTITLE2=Heralds of Death
TTITLE3=Leprosarium Incinerator
TTITLE4=Moribund Foetus
TTITLE5=Disentomb
TTITLE6=Rotten to the Gore
TTITLE7=Catacomb's Revelation
TTITLE8=You Must Die
TTITLE9=Night of the Living Dead
EXTD=
EXTT0=
EXTT1=
EXTT2=
EXTT3=
EXTT4=
EXTT5=
EXTT6=
EXTT7=
EXTT8=
EXTT9=
PLAYORDER=
